<svg width="24" height="24" viewBox="0 0 24 24" fill="none" xmlns="http://www.w3.org/2000/svg">
<path fill-rule="evenodd" clip-rule="evenodd" d="M19.3332 22.6666C20.2172 22.6666 21.0651 22.3154 21.6902 21.6903C22.3153 21.0652 22.6665 20.2173 22.6665 19.3333C22.6665 18.4492 22.3153 17.6014 21.6902 16.9763C21.0651 16.3511 20.2172 16 19.3332 16C18.4491 16 17.6013 16.3511 16.9761 16.9763C16.351 17.6014 15.9998 18.4492 15.9998 19.3333C15.9998 20.2173 16.351 21.0652 16.9761 21.6903C17.6013 22.3154 18.4491 22.6666 19.3332 22.6666ZM19.3332 24C20.5708 24 21.7578 23.5083 22.633 22.6331C23.5082 21.758 23.9998 20.571 23.9998 19.3333C23.9998 18.0956 23.5082 16.9086 22.633 16.0335C21.7578 15.1583 20.5708 14.6666 19.3332 14.6666C18.0955 14.6666 16.9085 15.1583 16.0333 16.0335C15.1582 16.9086 14.6665 18.0956 14.6665 19.3333C14.6665 20.571 15.1582 21.758 16.0333 22.6331C16.9085 23.5083 18.0955 24 19.3332 24Z" fill="#1D50D7"/>
<path fill-rule="evenodd" clip-rule="evenodd" d="M19.3332 17C19.51 17 19.6796 17.0702 19.8046 17.1953C19.9296 17.3203 19.9998 17.4899 19.9998 17.6667V19.0573L20.4712 19.5287C20.5926 19.6544 20.6598 19.8228 20.6583 19.9976C20.6568 20.1724 20.5867 20.3396 20.4631 20.4632C20.3394 20.5868 20.1722 20.6569 19.9974 20.6585C19.8226 20.66 19.6542 20.5928 19.5285 20.4713L18.6665 19.6093V17.6667C18.6665 17.4899 18.7367 17.3203 18.8618 17.1953C18.9868 17.0702 19.1564 17 19.3332 17ZM5.33317 11.3333H3.99984V12.6667H5.33317V11.3333ZM3.99984 10C3.64622 10 3.30708 10.1405 3.05703 10.3905C2.80698 10.6406 2.6665 10.9797 2.6665 11.3333V12.6667C2.6665 13.0203 2.80698 13.3594 3.05703 13.6095C3.30708 13.8595 3.64622 14 3.99984 14H5.33317C5.68679 14 6.02593 13.8595 6.27598 13.6095C6.52603 13.3594 6.6665 13.0203 6.6665 12.6667V11.3333C6.6665 10.9797 6.52603 10.6406 6.27598 10.3905C6.02593 10.1405 5.68679 10 5.33317 10H3.99984ZM10.6665 11.3333H9.33317V12.6667H10.6665V11.3333ZM9.33317 10C8.97955 10 8.64041 10.1405 8.39036 10.3905C8.14031 10.6406 7.99984 10.9797 7.99984 11.3333V12.6667C7.99984 13.0203 8.14031 13.3594 8.39036 13.6095C8.64041 13.8595 8.97955 14 9.33317 14H10.6665C11.0201 14 11.3593 13.8595 11.6093 13.6095C11.8594 13.3594 11.9998 13.0203 11.9998 12.6667V11.3333C11.9998 10.9797 11.8594 10.6406 11.6093 10.3905C11.3593 10.1405 11.0201 10 10.6665 10H9.33317ZM15.9998 11.3333H14.6665V12.6667H15.9998V11.3333ZM14.6665 10C14.3129 10 13.9737 10.1405 13.7237 10.3905C13.4736 10.6406 13.3332 10.9797 13.3332 11.3333V12.6667C13.3332 13.0203 13.4736 13.3594 13.7237 13.6095C13.9737 13.8595 14.3129 14 14.6665 14H15.9998C16.3535 14 16.6926 13.8595 16.9426 13.6095C17.1927 13.3594 17.3332 13.0203 17.3332 12.6667V11.3333C17.3332 10.9797 17.1927 10.6406 16.9426 10.3905C16.6926 10.1405 16.3535 10 15.9998 10H14.6665ZM5.33317 16.6667H3.99984V18H5.33317V16.6667ZM3.99984 15.3333C3.64622 15.3333 3.30708 15.4738 3.05703 15.7239C2.80698 15.9739 2.6665 16.313 2.6665 16.6667V18C2.6665 18.3536 2.80698 18.6928 3.05703 18.9428C3.30708 19.1929 3.64622 19.3333 3.99984 19.3333H5.33317C5.68679 19.3333 6.02593 19.1929 6.27598 18.9428C6.52603 18.6928 6.6665 18.3536 6.6665 18V16.6667C6.6665 16.313 6.52603 15.9739 6.27598 15.7239C6.02593 15.4738 5.68679 15.3333 5.33317 15.3333H3.99984ZM10.6665 16.6667H9.33317V18H10.6665V16.6667ZM9.33317 15.3333C8.97955 15.3333 8.64041 15.4738 8.39036 15.7239C8.14031 15.9739 7.99984 16.313 7.99984 16.6667V18C7.99984 18.3536 8.14031 18.6928 8.39036 18.9428C8.64041 19.1929 8.97955 19.3333 9.33317 19.3333H10.6665C11.0201 19.3333 11.3593 19.1929 11.6093 18.9428C11.8594 18.6928 11.9998 18.3536 11.9998 18V16.6667C11.9998 16.313 11.8594 15.9739 11.6093 15.7239C11.3593 15.4738 11.0201 15.3333 10.6665 15.3333H9.33317Z" fill="#1D50D7"/>
<path fill-rule="evenodd" clip-rule="evenodd" d="M1.33333 4C1.33333 3.82319 1.40357 3.65362 1.5286 3.5286C1.65362 3.40357 1.82319 3.33333 2 3.33333H5.33333V2H2C1.46957 2 0.960859 2.21071 0.585787 2.58579C0.210714 2.96086 0 3.46957 0 4V20C0 20.5304 0.210714 21.0391 0.585787 21.4142C0.960859 21.7893 1.46957 22 2 22H15.5033C15.219 21.5928 15.0018 21.1426 14.86 20.6667H2C1.82319 20.6667 1.65362 20.5964 1.5286 20.4714C1.40357 20.3464 1.33333 20.1768 1.33333 20V4ZM18.6667 14.7133C19.1089 14.6501 19.5578 14.6501 20 14.7133V4C20 3.46957 19.7893 2.96086 19.4142 2.58579C19.0391 2.21071 18.5304 2 18 2H16V3.33333H18C18.1768 3.33333 18.3464 3.40357 18.4714 3.5286C18.5964 3.65362 18.6667 3.82319 18.6667 4V14.7133ZM6.66667 3.33333H13.7087V2H6.66667V3.33333Z" fill="#1D50D7"/>
<path fill-rule="evenodd" clip-rule="evenodd" d="M20.0002 7.99996H1.3335V6.66663H20.0002V7.99996Z" fill="#1D50D7"/>
<path d="M4 0.666667C4 0.489856 4.07024 0.320287 4.19526 0.195262C4.32029 0.070238 4.48986 0 4.66667 0C4.84348 0 5.01305 0.070238 5.13807 0.195262C5.2631 0.320287 5.33333 0.489856 5.33333 0.666667V4C5.33333 4.17681 5.2631 4.34638 5.13807 4.4714C5.01305 4.59643 4.84348 4.66667 4.66667 4.66667C4.48986 4.66667 4.32029 4.59643 4.19526 4.4714C4.07024 4.34638 4 4.17681 4 4V0.666667ZM13.3333 0.666667C13.3333 0.489856 13.4036 0.320287 13.5286 0.195262C13.6536 0.070238 13.8232 0 14 0C14.1768 0 14.3464 0.070238 14.4714 0.195262C14.5964 0.320287 14.6667 0.489856 14.6667 0.666667V4C14.6667 4.17681 14.5964 4.34638 14.4714 4.4714C14.3464 4.59643 14.1768 4.66667 14 4.66667C13.8232 4.66667 13.6536 4.59643 13.5286 4.4714C13.4036 4.34638 13.3333 4.17681 13.3333 4V0.666667Z" fill="#1D50D7"/>
</svg>
