<svg width="25" height="25" viewBox="0 0 25 25" fill="none" xmlns="http://www.w3.org/2000/svg">
<path d="M14.05 22.8323C14.3242 22.8323 14.5871 22.9412 14.781 23.1351C14.9749 23.329 15.0838 23.592 15.0838 23.8662C15.0838 24.1403 14.9749 24.4033 14.781 24.5972C14.5871 24.7911 14.3242 24.9 14.05 24.9C13.7758 24.9 13.5128 24.7911 13.3189 24.5972C13.1251 24.4033 13.0161 24.1403 13.0161 23.8662C13.0161 23.592 13.1251 23.329 13.3189 23.1351C13.5128 22.9412 13.7758 22.8323 14.05 22.8323ZM10.4338 21.8C10.5729 21.7946 10.7115 21.8173 10.8416 21.8668C10.9716 21.9163 11.0903 21.9916 11.1906 22.088C11.2909 22.1845 11.3706 22.3002 11.4251 22.4282C11.4796 22.5562 11.5077 22.6939 11.5077 22.8331C11.5077 22.9722 11.4796 23.1099 11.4251 23.2379C11.3706 23.366 11.2909 23.4817 11.1906 23.5781C11.0903 23.6746 10.9716 23.7498 10.8416 23.7993C10.7115 23.8488 10.5729 23.8715 10.4338 23.8662C10.1668 23.8558 9.91409 23.7424 9.7288 23.5498C9.5435 23.3572 9.44 23.1003 9.44 22.8331C9.44 22.5658 9.5435 22.3089 9.7288 22.1163C9.91409 21.9237 10.1668 21.8103 10.4338 21.8ZM17.6661 21.8C17.8052 21.7946 17.9438 21.8173 18.0739 21.8668C18.2039 21.9163 18.3226 21.9916 18.4229 22.088C18.5232 22.1845 18.6029 22.3002 18.6574 22.4282C18.7119 22.5562 18.74 22.6939 18.74 22.8331C18.74 22.9722 18.7119 23.1099 18.6574 23.2379C18.6029 23.366 18.5232 23.4817 18.4229 23.5781C18.3226 23.6746 18.2039 23.7498 18.0739 23.7993C17.9438 23.8488 17.8052 23.8715 17.6661 23.8662C17.3991 23.8558 17.1464 23.7424 16.9611 23.5498C16.7758 23.3572 16.6723 23.1003 16.6723 22.8331C16.6723 22.5658 16.7758 22.3089 16.9611 22.1163C17.1464 21.9237 17.3991 21.8103 17.6661 21.8ZM14.05 6.3C17.8707 6.3 20.0376 8.73815 20.3523 11.6847H20.4484C22.9067 11.6847 24.9 13.6021 24.9 15.9674C24.9 18.3327 22.9067 20.25 20.4484 20.25H7.65158C5.19328 20.25 3.19998 18.3327 3.19998 15.9674C3.19998 13.6021 5.19328 11.6847 7.65158 11.6847H7.74768C8.06543 8.718 10.2292 6.3 14.05 6.3ZM14.05 7.85C11.4925 7.85 9.26513 9.8185 9.26513 12.5387C9.26513 12.9697 8.87143 13.3076 8.42038 13.3076H7.56788C6.01168 13.306 4.74998 14.515 4.74998 16.003C4.74998 17.491 6.01168 18.7 7.56788 18.7H20.5321C22.0883 18.7 23.35 17.491 23.35 16.003C23.35 14.515 22.0883 13.306 20.5321 13.306H19.6796C19.2301 13.3076 18.8348 12.9697 18.8348 12.5387C18.8348 9.7844 16.6075 7.85 14.05 7.85ZM2.89463 10.485C2.95435 10.6567 2.95183 10.8439 2.88751 11.0139C2.82319 11.1839 2.70117 11.3258 2.54278 11.415L2.41413 11.4708L1.17258 11.8986C0.989357 11.9627 0.788746 11.9557 0.610422 11.879C0.432097 11.8024 0.289045 11.6615 0.209557 11.4844C0.130069 11.3074 0.119934 11.1069 0.181156 10.9227C0.242377 10.7385 0.370498 10.5839 0.540178 10.4896L0.667278 10.4338L1.91038 10.006C2.10462 9.93939 2.31738 9.95256 2.50192 10.0426C2.68647 10.1327 2.82771 10.2924 2.89463 10.4866V10.485ZM10.826 3.975C11.3421 4.2261 11.7963 4.55315 12.1807 4.936C11.5514 5.06465 10.9624 5.2615 10.4199 5.51725C9.71983 5.09589 8.89541 4.93012 8.0869 5.04815C7.2784 5.16618 6.53577 5.56072 5.9854 6.16463C5.43503 6.76854 5.11092 7.5445 5.06824 8.36046C5.02555 9.17642 5.26693 9.98196 5.75128 10.64C5.23978 10.7919 4.75928 11.0135 4.31753 11.291C3.71786 10.3574 3.44008 9.25325 3.52659 8.14703C3.61311 7.0408 4.05915 5.99326 4.79667 5.16423C5.53418 4.3352 6.52267 3.77023 7.6113 3.5555C8.69992 3.34078 9.82891 3.48811 10.826 3.975ZM1.52133 4.2385L1.64998 4.2881L2.83108 4.86315C3.0052 4.94779 3.14133 5.09454 3.21269 5.27451C3.28404 5.45448 3.28546 5.65464 3.21665 5.8356C3.14784 6.01656 3.0138 6.16522 2.84089 6.25231C2.66799 6.3394 2.46875 6.35863 2.28238 6.3062L2.15218 6.2566L0.971078 5.68155C0.796961 5.59691 0.660828 5.45016 0.589471 5.27019C0.518114 5.09022 0.5167 4.89006 0.585508 4.7091C0.654316 4.52814 0.788362 4.37948 0.961266 4.29239C1.13417 4.2053 1.33341 4.18607 1.51978 4.2385H1.52133ZM12.4845 0.55725C12.6477 0.636873 12.7777 0.77127 12.8519 0.93699C12.9262 1.10271 12.9398 1.28923 12.8906 1.464L12.841 1.5942L12.2659 2.7753C12.1813 2.94942 12.0345 3.08555 11.8546 3.15691C11.6746 3.22826 11.4744 3.22968 11.2935 3.16087C11.1125 3.09206 10.9639 2.95802 10.8768 2.78511C10.7897 2.61221 10.7705 2.41297 10.8229 2.2266L10.8725 2.09485L11.4491 0.91375C11.5392 0.729301 11.6989 0.588166 11.893 0.521327C12.0872 0.454488 12.2999 0.467408 12.4845 0.55725ZM6.60998 0.507649L6.66733 0.634749L7.09513 1.87785C7.15802 2.06084 7.15018 2.26073 7.07316 2.43823C6.99614 2.61573 6.85551 2.758 6.67891 2.83707C6.50231 2.91614 6.30252 2.92629 6.11882 2.86553C5.93512 2.80476 5.78079 2.67748 5.68618 2.5087L5.63038 2.3816L5.20258 1.14005C5.14068 0.957495 5.14903 0.758424 5.22601 0.581697C5.30299 0.404971 5.44306 0.263274 5.61889 0.184267C5.79472 0.10526 5.99368 0.0946149 6.17693 0.154409C6.36019 0.214203 6.51458 0.340145 6.60998 0.507649Z" fill="#1D50D7"/>
</svg>
