<svg width="14" height="25" viewBox="0 0 14 25" fill="none" xmlns="http://www.w3.org/2000/svg">
<path d="M13.8437 16.5917C13.8437 12.4094 10.4181 11.9327 7.66583 11.5503C4.66614 11.1334 2.96873 10.7709 2.96873 8.18806C2.96873 6.02031 5.2407 5.25 7.18642 5.25C8.15606 5.21868 9.11926 5.41829 9.9966 5.83237C10.8739 6.24646 11.6403 6.86316 12.2324 7.63163L13.6425 6.49337C13.0084 5.6779 12.2193 4.99581 11.3207 4.48631C10.4221 3.9768 9.43161 3.64994 8.40623 3.5245V0.71875H6.59373V3.45744C3.31764 3.65681 1.15623 5.50556 1.15623 8.18806C1.15623 12.4746 4.62717 12.9577 7.4157 13.3446C10.3637 13.7552 12.0312 14.1077 12.0312 16.5917C12.0312 19.3395 9.19195 19.75 7.49998 19.75C4.39155 19.75 3.0793 18.8764 1.8613 17.3684L0.451172 18.5066C1.16961 19.4534 2.09883 20.2196 3.16509 20.7446C4.23135 21.2695 5.40529 21.5387 6.59373 21.5308V24.2812H8.40623V21.5217C11.7829 21.2462 13.8437 19.4129 13.8437 16.5917Z" fill="#1D50D7"/>
</svg>
