<svg width="23" height="23" viewBox="0 0 23 23" fill="none" xmlns="http://www.w3.org/2000/svg">
<path d="M15.1269 15.1269C15.948 15.1269 16.6139 15.9591 16.6139 16.9857C16.6139 18.0122 15.948 18.8445 15.1269 18.8445H2.48704C1.66592 18.8445 1 18.0122 1 16.9857C1 15.9591 1.66592 15.1269 2.48704 15.1269M14.4763 18.8445C14.4763 20.4872 13.5167 21.8185 11.874 21.8185H5.73994C4.09723 21.8185 3.13762 20.4872 3.13762 18.8445H14.4763Z" stroke="#1D50D7" stroke-miterlimit="10" stroke-linecap="round"/>
<path d="M10.7122 4.71754L11.058 7.69023M15.4986 15.1268H7.8455C7.74703 15.1269 7.65261 15.166 7.58294 15.2356L6.33615 16.4824C6.31889 16.4996 6.29839 16.5134 6.27582 16.5227C6.25326 16.5321 6.22907 16.5369 6.20464 16.5369C6.18022 16.5369 6.15603 16.5321 6.13346 16.5227C6.1109 16.5134 6.0904 16.4996 6.07313 16.4824L4.82634 15.2356C4.75668 15.166 4.66225 15.1269 4.56379 15.1268H2.11528C1.81949 15.1268 1.53581 15.0093 1.32666 14.8002C1.1175 14.591 1 14.3073 1 14.0115V14.0115C1 13.7158 1.1175 13.4321 1.32666 13.2229C1.53581 13.0138 1.81949 12.8963 2.11528 12.8963H15.4986C15.7944 12.8963 16.0781 13.0138 16.2873 13.2229C16.4964 13.4321 16.6139 13.7158 16.6139 14.0115C16.6139 14.3073 16.4964 14.591 16.2873 14.8002C16.0781 15.0093 15.7944 15.1268 15.4986 15.1268ZM2.48704 12.3386V12.3284C2.48704 9.77255 4.57819 8.43515 7.13404 8.43515H10.4799C13.0357 8.43515 15.1269 9.78278 15.1269 12.3386V12.3284L2.48704 12.3386Z" stroke="#1D50D7" stroke-miterlimit="10" stroke-linecap="round"/>
<path d="M11.4092 21.8185H17.8829C18.2581 21.8185 18.6194 21.6767 18.8944 21.4215C19.1694 21.1663 19.3378 20.8166 19.3658 20.4425L21.0285 4.71753" stroke="#1D50D7" stroke-miterlimit="10" stroke-linecap="round"/>
<path d="M16.6138 4.7176L17.3573 1.74352L19.5414 1" stroke="#1D50D7" stroke-linecap="round" stroke-linejoin="round"/>
<path d="M9.92188 4.71754H21.8182" stroke="#1D50D7" stroke-miterlimit="10" stroke-linecap="round"/>
</svg>
