<svg width="25" height="25" viewBox="0 0 25 25" fill="none" xmlns="http://www.w3.org/2000/svg">
<path d="M8.50216 8.16104L12.4934 3.47875M7.09425 0.617707C5.85762 0.616171 4.64594 0.965498 3.59992 1.62511C2.5539 2.28473 1.71648 3.22757 1.18492 4.34412C0.653358 5.46067 0.449469 6.70511 0.596932 7.93291C0.744396 9.16072 1.23716 10.3215 2.018 11.2804V11.2804L12.4999 23.5835L22.8784 11.4031L22.9301 11.345L22.9817 11.2804C23.5486 10.5968 23.9703 9.80499 24.2213 8.95316C24.4722 8.10132 24.5471 7.20731 24.4414 6.3256C24.3357 5.44388 24.0516 4.59292 23.6064 3.82455C23.1612 3.05618 22.5642 2.38649 21.8518 1.85627C21.1394 1.32605 20.3266 0.946415 19.4628 0.74048C18.5989 0.534546 17.7022 0.506626 16.8273 0.658424C15.9523 0.810222 15.1174 1.13856 14.3735 1.62343C13.6295 2.1083 12.992 2.73956 12.4999 3.47875C11.9019 2.59728 11.0972 1.87566 10.156 1.37692C9.21484 0.878191 8.16585 0.617527 7.10071 0.617707H7.09425Z" stroke="#1D50D7" stroke-linecap="round" stroke-linejoin="round"/>
</svg>
