<svg width="21" height="20" viewBox="0 0 21 20" fill="none" xmlns="http://www.w3.org/2000/svg">
<path d="M8 9.16673V8.33339C8 6.95006 8.41667 5.83339 10.5 5.83339C12.5833 5.83339 13 6.95006 13 8.33339V9.16673" stroke="#7686AB" stroke-width="1.5" stroke-linecap="round" stroke-linejoin="round"/>
<path d="M10.5 12.1668C10.7761 12.1668 11 11.9429 11 11.6668C11 11.3906 10.7761 11.1667 10.5 11.1667C10.2238 11.1667 10 11.3906 10 11.6668C10 11.9429 10.2238 12.1668 10.5 12.1668Z" stroke="#7686AB" stroke-width="1.5" stroke-linecap="round" stroke-linejoin="round"/>
<path d="M12.5833 14.1667H8.41659C6.74992 14.1667 6.33325 13.7501 6.33325 12.0834V11.2501C6.33325 9.5834 6.74992 9.16673 8.41659 9.16673H12.5833C14.2499 9.16673 14.6666 9.5834 14.6666 11.2501V12.0834C14.6666 13.7501 14.2499 14.1667 12.5833 14.1667Z" stroke="#7686AB" stroke-width="1.5" stroke-linecap="round" stroke-linejoin="round"/>
<path d="M10.5001 18.3334C15.1025 18.3334 18.8334 14.6024 18.8334 10.0001C18.8334 5.39769 15.1025 1.66673 10.5001 1.66673C5.89771 1.66673 2.16675 5.39769 2.16675 10.0001C2.16675 14.6024 5.89771 18.3334 10.5001 18.3334Z" stroke="#7686AB" stroke-width="1.5" stroke-linecap="round" stroke-linejoin="round"/>
</svg>
