<svg width="21" height="21" viewBox="0 0 21 21" fill="none" xmlns="http://www.w3.org/2000/svg">
<rect x="1" y="1" width="18.6772" height="18.5338" rx="9.26689" fill="#F2F4F7"/>
<path d="M8.39304 9.94948V8.39305C8.39304 7.87706 8.59802 7.3822 8.96287 7.01734C9.32773 6.65249 9.82259 6.44751 10.3386 6.44751C10.8546 6.44751 11.3494 6.65249 11.7143 7.01734C12.0791 7.3822 12.2841 7.87706 12.2841 8.39305V9.94948M7.61482 9.94948H13.0623C13.4921 9.94948 13.8405 10.2979 13.8405 10.7277V13.4514C13.8405 13.8812 13.4921 14.2297 13.0623 14.2297H7.61482C7.18503 14.2297 6.83661 13.8812 6.83661 13.4514V10.7277C6.83661 10.2979 7.18503 9.94948 7.61482 9.94948Z" stroke="#020246" stroke-width="0.778215" stroke-linecap="round" stroke-linejoin="round"/>
<rect x="1" y="1" width="18.6772" height="18.5338" rx="9.26689" stroke="#FCFCFD" stroke-width="2"/>
</svg>
