<svg width="18" height="19" viewBox="0 0 18 19" fill="none" xmlns="http://www.w3.org/2000/svg">
<g clip-path="url(#clip0_1_6459)">
<path d="M6.75 17.4168C7.16421 17.4168 7.5 17.0624 7.5 16.6252C7.5 16.1879 7.16421 15.8335 6.75 15.8335C6.33579 15.8335 6 16.1879 6 16.6252C6 17.0624 6.33579 17.4168 6.75 17.4168Z" stroke="white" stroke-width="2" stroke-linecap="round" stroke-linejoin="round"/>
<path d="M15 17.4168C15.4142 17.4168 15.75 17.0624 15.75 16.6252C15.75 16.1879 15.4142 15.8335 15 15.8335C14.5858 15.8335 14.25 16.1879 14.25 16.6252C14.25 17.0624 14.5858 17.4168 15 17.4168Z" stroke="white" stroke-width="2" stroke-linecap="round" stroke-linejoin="round"/>
<path d="M0.75 0.791504H3.75L5.76 11.3919C5.82858 11.7564 6.01643 12.0838 6.29066 12.3168C6.56489 12.5498 6.90802 12.6736 7.26 12.6665H14.55C14.902 12.6736 15.2451 12.5498 15.5193 12.3168C15.7936 12.0838 15.9814 11.7564 16.05 11.3919L17.25 4.74984H4.5" stroke="white" stroke-width="2" stroke-linecap="round" stroke-linejoin="round"/>
</g>
<defs>
<clipPath id="clip0_1_6459">
<rect width="18" height="19" fill="white"/>
</clipPath>
</defs>
</svg>
