<svg width="132" height="109" viewBox="0 0 132 109" fill="none" xmlns="http://www.w3.org/2000/svg">
<path fill-rule="evenodd" clip-rule="evenodd" d="M41.4467 43.2486H22.3967C16.4252 43.2486 11.5845 48.0894 11.5845 54.0608C11.5845 60.0322 16.4252 64.873 22.3966 64.873H41.4467V43.2486Z" fill="#63BFFC"/>
<path d="M3.08919 108.122L46.029 28.7295C46.3379 27.8028 46.4924 27.1334 46.4924 26.7215C46.4924 26.1037 46.2864 25.6403 45.8745 25.3314C45.5656 25.0225 44.9993 24.868 44.1755 24.868H0V0H52.5163C56.9442 0 60.9601 1.02973 64.5642 3.0892C68.1682 5.04569 71.0515 7.72299 73.2139 11.1211C75.3763 14.4162 76.4576 18.1748 76.4576 22.3967C76.4576 24.5591 76.1486 26.7215 75.5308 28.884C75.0159 31.0464 74.3466 33.0544 73.5228 34.9079L34.599 108.122H3.08919Z" fill="#3055D9"/>
<path d="M117.132 108.122C108.894 108.122 101.532 106.423 95.0443 103.025C88.557 99.6266 83.4598 94.9413 79.7528 88.9689C76.0458 82.9964 74.1923 76.1487 74.1923 68.4257C74.1923 60.7028 76.0458 53.855 79.7528 47.8826C83.4598 41.8072 88.557 37.0704 95.0443 33.6723C101.532 30.2742 108.894 28.5751 117.132 28.5751H130.879V50.8173H118.831C115.227 50.8173 112.086 51.5896 109.409 53.1342C106.732 54.6788 104.672 56.7898 103.231 59.4671C101.789 62.1444 101.068 65.1306 101.068 68.4257C101.068 71.7209 101.789 74.7586 103.231 77.5389C104.672 80.2162 106.732 82.3271 109.409 83.8717C112.086 85.4163 115.227 86.1886 118.831 86.1886H130.879V108.122H117.132Z" fill="#3055D9"/>
<path fill-rule="evenodd" clip-rule="evenodd" d="M131.033 57.6649H120.221C114.25 57.6649 109.409 62.5057 109.409 68.4771C109.409 74.4485 114.25 79.2893 120.221 79.2893H131.033V57.6649Z" fill="#63BFFC"/>
</svg>
