<svg width="34" height="28" viewBox="0 0 34 28" fill="none" xmlns="http://www.w3.org/2000/svg">
<path fill-rule="evenodd" clip-rule="evenodd" d="M10.7544 11.2H5.80588C4.25948 11.2 3.00587 12.4536 3.00587 14C3.00587 15.5464 4.25948 16.8 5.80588 16.8H10.7544V11.2Z" fill="#63BFFC"/>
<path d="M0.801572 28L11.9434 7.44C12.0236 7.2 12.0637 7.02667 12.0637 6.92C12.0637 6.76 12.0102 6.64 11.9033 6.56C11.8232 6.48 11.6762 6.44 11.4625 6.44H0V0H13.6267C14.7756 0 15.8177 0.266667 16.7529 0.800002C17.688 1.30667 18.4362 2 18.9973 2.88C19.5584 3.73333 19.8389 4.70667 19.8389 5.8C19.8389 6.36 19.7587 6.92 19.5984 7.48C19.4648 8.04 19.2912 8.56 19.0774 9.04L8.9776 28H0.801572Z" fill="white"/>
<path d="M30.3929 28.0001C28.2554 28.0001 26.345 27.5601 24.6617 26.6801C22.9784 25.8001 21.6558 24.5868 20.6939 23.0401C19.732 21.4934 19.2511 19.7201 19.2511 17.7201C19.2511 15.7201 19.732 13.9468 20.6939 12.4001C21.6558 10.8268 22.9784 9.60009 24.6617 8.72009C26.345 7.84009 28.2554 7.40009 30.3929 7.40009H33.9599V13.1601H30.8338C29.8986 13.1601 29.0837 13.3601 28.389 13.7601C27.6943 14.1601 27.1599 14.7068 26.7859 15.4001C26.4118 16.0934 26.2248 16.8668 26.2248 17.7201C26.2248 18.5734 26.4118 19.3601 26.7859 20.0801C27.1599 20.7734 27.6943 21.3201 28.389 21.7201C29.0837 22.1201 29.8986 22.3201 30.8338 22.3201H33.9599V28.0001H30.3929Z" fill="white"/>
<path fill-rule="evenodd" clip-rule="evenodd" d="M34 14.9333H31.189C29.6426 14.9333 28.389 16.1869 28.389 17.7333C28.389 19.2797 29.6426 20.5333 31.189 20.5333H34V14.9333Z" fill="#63BFFC"/>
</svg>
