<svg width="20" height="20" viewBox="0 0 20 20" fill="none" xmlns="http://www.w3.org/2000/svg">
<path d="M14.3336 18.3332C16.5427 18.3332 18.3336 16.5424 18.3336 14.3332C18.3336 12.1241 16.5427 10.3333 14.3336 10.3333C12.1245 10.3333 10.3336 12.1241 10.3336 14.3332C10.3336 16.5424 12.1245 18.3332 14.3336 18.3332Z" stroke="#2453FF" stroke-width="1.5" stroke-miterlimit="10" stroke-linecap="round" stroke-linejoin="round"/>
<path d="M15.8251 14.3832H12.8418" stroke="#2453FF" stroke-width="1.5" stroke-miterlimit="10" stroke-linecap="round" stroke-linejoin="round"/>
<path d="M14.3335 12.9249V15.9165" stroke="#2453FF" stroke-width="1.5" stroke-miterlimit="10" stroke-linecap="round" stroke-linejoin="round"/>
<path d="M18.3333 7.24167C18.3333 8.88334 17.9083 10.3333 17.2416 11.5916C16.5083 10.8166 15.475 10.3334 14.3333 10.3334C12.125 10.3334 10.3333 12.125 10.3333 14.3333C10.3333 15.3583 10.725 16.2917 11.3583 17C11.05 17.1417 10.7666 17.2583 10.5166 17.3417C10.2333 17.4417 9.76663 17.4417 9.4833 17.3417C7.06663 16.5167 1.66663 13.075 1.66663 7.24167C1.66663 4.66667 3.74162 2.58331 6.29996 2.58331C7.80829 2.58331 9.15829 3.31668 9.99996 4.44168C10.8416 3.31668 12.1916 2.58331 13.7 2.58331C16.2583 2.58331 18.3333 4.66667 18.3333 7.24167Z" stroke="#2453FF" stroke-width="1.5" stroke-linecap="round" stroke-linejoin="round"/>
</svg>
