<svg width="20" height="18" viewBox="0 0 20 18" fill="none" xmlns="http://www.w3.org/2000/svg">
<path d="M18.3334 4.5V6.315C18.3334 7.5 17.5 8.25 16.1834 8.25H13.3334V3.0075C13.3334 2.175 14.0917 1.5 15.0167 1.5C15.925 1.5075 16.7584 1.8375 17.3584 2.3775C17.9584 2.925 18.3334 3.675 18.3334 4.5Z" stroke="#2453FF" stroke-width="1.5" stroke-miterlimit="10" stroke-linecap="round" stroke-linejoin="round"/>
<path d="M1.66663 5.25V15.75C1.66663 16.3725 2.44996 16.725 2.99996 16.35L4.42496 15.39C4.75829 15.165 5.22496 15.195 5.52496 15.465L6.90829 16.7175C7.23329 17.01 7.76663 17.01 8.09163 16.7175L9.49163 15.4575C9.78329 15.195 10.25 15.165 10.575 15.39L12 16.35C12.55 16.7175 13.3333 16.365 13.3333 15.75V3C13.3333 2.175 14.0833 1.5 15 1.5H5.83329H4.99996C2.49996 1.5 1.66663 2.8425 1.66663 4.5V5.25Z" stroke="#2453FF" stroke-width="1.5" stroke-miterlimit="10" stroke-linecap="round" stroke-linejoin="round"/>
<path d="M7.5 9.75751H10" stroke="#2453FF" stroke-width="1.5" stroke-linecap="round" stroke-linejoin="round"/>
<path d="M7.5 6.75751H10" stroke="#2453FF" stroke-width="1.5" stroke-linecap="round" stroke-linejoin="round"/>
<path d="M4.9967 9.75H5.00419" stroke="#2453FF" stroke-width="2" stroke-linecap="round" stroke-linejoin="round"/>
<path d="M4.9967 6.75H5.00419" stroke="#2453FF" stroke-width="2" stroke-linecap="round" stroke-linejoin="round"/>
</svg>
