<svg width="25" height="25" viewBox="0 0 25 25" fill="none" xmlns="http://www.w3.org/2000/svg">
<path d="M5.20801 12.4999C5.20801 10.566 5.97623 8.71138 7.34369 7.34393C8.71114 5.97648 10.5658 5.20825 12.4997 5.20825M5.20801 12.4999H2.08301M5.20801 12.4999C5.20801 14.5135 6.02467 16.3364 7.34343 17.6562L4.68717 20.3124M12.4997 5.20825V2.08325M12.4997 5.20825C14.5132 5.20825 16.3361 6.02492 17.6559 7.34367L20.3122 4.68742M12.4997 2.08325H14.583M12.4997 2.08325H10.4163M2.08301 12.4999V10.4166M2.08301 12.4999V14.5833M20.3122 4.68742L18.7497 3.12492M20.3122 4.68742L21.8747 6.24992M4.68717 4.68742L6.24967 3.12492M4.68717 4.68742L3.12467 6.24992M4.68717 4.68742L7.29134 7.29159M4.68717 20.3124L6.24967 21.8749M4.68717 20.3124L3.12467 18.7499M16.6663 19.7916H16.6674M9.37468 10.9374C9.37468 10.523 9.53929 10.1256 9.83232 9.83256C10.1253 9.53954 10.5228 9.37492 10.9372 9.37492M16.6674 16.6666L16.6663 13.5416M22.9163 16.6666C22.9163 18.3242 22.2579 19.9139 21.0858 21.086C19.9137 22.2581 18.3239 22.9166 16.6663 22.9166C15.0087 22.9166 13.419 22.2581 12.2469 21.086C11.0748 19.9139 10.4163 18.3242 10.4163 16.6666C10.4163 15.009 11.0748 13.4193 12.2469 12.2472C13.419 11.0751 15.0087 10.4166 16.6663 10.4166C18.3239 10.4166 19.9137 11.0751 21.0858 12.2472C22.2579 13.4193 22.9163 15.009 22.9163 16.6666V16.6666Z" stroke="#5E7099" stroke-width="1.5" stroke-linecap="round" stroke-linejoin="round"/>
</svg>
