<svg width="20" height="20" viewBox="0 0 20 20" fill="none" xmlns="http://www.w3.org/2000/svg">
<path d="M10 17.4C3.8 17.4 0.3 10.6 0.2 10.3C0.1 10.1 0.1 9.80001 0.2 9.60001C0.3 9.40001 3.8 2.60001 10 2.60001C16.2 2.60001 19.7 9.40001 19.8 9.70001C19.9 9.90001 19.9 10.2 19.8 10.4C19.7 10.6 16.2 17.4 10 17.4ZM1.7 10C2.5 11.3 5.4 15.9 10 15.9C14.6 15.9 17.6 11.3 18.3 10C17.5 8.70001 14.6 4.10001 10 4.10001C5.4 4.10001 2.4 8.70001 1.7 10Z" fill="#231D4F"/>
<path d="M10.0002 13.3C8.2002 13.3 6.7002 11.8 6.7002 9.99999C6.7002 8.19999 8.2002 6.79999 10.0002 6.79999C11.8002 6.79999 13.3002 8.29999 13.3002 10.1C13.3002 11.9 11.8002 13.3 10.0002 13.3ZM10.0002 8.29999C9.0002 8.29999 8.3002 8.99999 8.3002 9.99999C8.3002 11 9.0002 11.8 10.0002 11.8C11.0002 11.8 11.8002 11 11.8002 9.99999C11.8002 8.99999 11.0002 8.29999 10.0002 8.29999Z" fill="#231D4F"/>
</svg>
