<svg width="27" height="16" viewBox="0 0 27 16" fill="none" xmlns="http://www.w3.org/2000/svg">
<path d="M13.5 16C12.645 16 11.8184 15.8836 11.0201 15.6507C10.2209 15.4169 9.48375 15.0778 8.80875 14.6333C7.81875 14.5667 6.80625 14.3556 5.77125 14C4.73625 13.6444 3.79125 13.0556 2.93625 12.2333C2.08125 11.4111 1.3779 10.3333 0.8262 9C0.2754 7.66667 0 6 0 4V3.33333C0 2.4 0.32625 1.61111 0.97875 0.966667C1.63125 0.322222 2.43 0 3.375 0C4.2525 0 5.0121 0.3 5.6538 0.9C6.2946 1.5 6.64875 2.22222 6.71625 3.06667C7.34625 2.88889 7.90875 2.66667 8.40375 2.4C8.89875 2.13333 9.405 1.87778 9.9225 1.63333C10.44 1.36667 10.98 1.13911 11.5425 0.950666C12.105 0.761333 12.7575 0.666667 13.5 0.666667C14.265 0.666667 14.9234 0.761333 15.4751 0.950666C16.0259 1.13911 16.56 1.36667 17.0775 1.63333C17.5725 1.87778 18.0729 2.13333 18.5787 2.4C19.0854 2.66667 19.6537 2.88889 20.2837 3.06667C20.3512 2.2 20.7054 1.472 21.3462 0.882667C21.9879 0.294222 22.7475 0 23.625 0C24.57 0 25.3687 0.322222 26.0212 0.966667C26.6737 1.61111 27 2.4 27 3.33333V4C27 6 26.7246 7.66667 26.1738 9C25.6221 10.3333 24.9188 11.4111 24.0638 12.2333C23.2088 13.0556 22.2638 13.6444 21.2288 14C20.1938 14.3556 19.1813 14.5667 18.1913 14.6333C17.5163 15.0778 16.7796 15.4169 15.9813 15.6507C15.1821 15.8836 14.355 16 13.5 16ZM6.075 11.9667C5.6475 11.3 5.31585 10.572 5.08005 9.78267C4.84335 8.99422 4.725 8.17778 4.725 7.33333V3.33333C4.725 2.95556 4.59585 2.63867 4.33755 2.38267C4.07835 2.12756 3.7575 2 3.375 2C2.9925 2 2.6721 2.12756 2.4138 2.38267C2.1546 2.63867 2.025 2.95556 2.025 3.33333V4C2.025 6.44444 2.44125 8.26667 3.27375 9.46667C4.10625 10.6667 5.04 11.5 6.075 11.9667ZM13.5 14C15.3675 14 16.9596 13.3498 18.2763 12.0493C19.5921 10.7498 20.25 9.17778 20.25 7.33333V5.13333C19.485 4.95556 18.8158 4.74444 18.2425 4.5C17.6683 4.25556 17.145 3.98889 16.6725 3.7C16.0425 3.32222 15.4859 3.05556 15.0026 2.9C14.5184 2.74444 14.0175 2.66667 13.5 2.66667C12.9825 2.66667 12.4821 2.74444 11.9988 2.9C11.5146 3.05556 10.9575 3.32222 10.3275 3.7C9.855 3.96667 9.3321 4.23333 8.7588 4.5C8.1846 4.76667 7.515 4.97778 6.75 5.13333V7.33333C6.75 9.17778 7.40835 10.7498 8.72505 12.0493C10.0409 13.3498 11.6325 14 13.5 14ZM9.45 7C9.945 6.86667 10.3725 6.70533 10.7325 6.516C11.0925 6.32756 11.43 6.14445 11.745 5.96667C12.06 5.78889 12.3471 5.63867 12.6063 5.516C12.8646 5.39422 13.1625 5.33333 13.5 5.33333C13.8375 5.33333 14.1359 5.39422 14.3951 5.516C14.6534 5.63867 14.94 5.78889 15.255 5.96667C15.57 6.14445 15.9021 6.32756 16.2513 6.516C16.5996 6.70533 17.0325 6.86667 17.55 7V5.6C17.2125 5.48889 16.92 5.36667 16.6725 5.23333L15.93 4.83333C15.57 4.61111 15.2046 4.41689 14.8338 4.25067C14.4621 4.08356 14.0175 4 13.5 4C12.9825 4 12.5383 4.08356 12.1675 4.25067C11.7958 4.41689 11.4188 4.61111 11.0363 4.83333L10.2938 5.23333C10.0463 5.36667 9.765 5.48889 9.45 5.6V7ZM20.925 11.9667C21.96 11.5 22.8938 10.6667 23.7263 9.46667C24.5588 8.26667 24.975 6.44444 24.975 4V3.33333C24.975 2.95556 24.8454 2.63867 24.5862 2.38267C24.3279 2.12756 24.0075 2 23.625 2C23.2425 2 22.9221 2.12756 22.6638 2.38267C22.4046 2.63867 22.275 2.95556 22.275 3.33333V7.33333C22.275 8.17778 22.1625 8.99422 21.9375 9.78267C21.7125 10.572 21.375 11.3 20.925 11.9667Z" fill="#3055D9"/>
</svg>
