<svg width="16" height="16" viewBox="0 0 16 16" fill="none" xmlns="http://www.w3.org/2000/svg">
<path d="M8 8.66663C9.10457 8.66663 10 7.7712 10 6.66663C10 5.56206 9.10457 4.66663 8 4.66663C6.89543 4.66663 6 5.56206 6 6.66663C6 7.7712 6.89543 8.66663 8 8.66663Z" stroke="white" stroke-linecap="round" stroke-linejoin="round"/>
<path d="M7.99984 1.33331C6.58535 1.33331 5.2288 1.89522 4.2286 2.89541C3.22841 3.8956 2.6665 5.25216 2.6665 6.66665C2.6665 7.92798 2.9345 8.75331 3.6665 9.66665L7.99984 14.6666L12.3332 9.66665C13.0652 8.75331 13.3332 7.92798 13.3332 6.66665C13.3332 5.25216 12.7713 3.8956 11.7711 2.89541C10.7709 1.89522 9.41433 1.33331 7.99984 1.33331V1.33331Z" stroke="white" stroke-linecap="round" stroke-linejoin="round"/>
</svg>
