<svg width="24" height="24" viewBox="0 0 24 24" fill="none" xmlns="http://www.w3.org/2000/svg">
<path d="M18 7.16C17.94 7.15 17.87 7.15 17.81 7.16C16.43 7.11 15.33 5.98 15.33 4.58C15.33 3.15 16.48 2 17.91 2C19.34 2 20.49 3.16 20.49 4.58C20.48 5.98 19.38 7.11 18 7.16Z" stroke="#3055D9" stroke-width="1.5" stroke-linecap="round" stroke-linejoin="round"/>
<path d="M16.9694 14.44C18.3394 14.67 19.8494 14.43 20.9094 13.72C22.3194 12.78 22.3194 11.24 20.9094 10.3C19.8394 9.59004 18.3094 9.35003 16.9394 9.59003" stroke="#3055D9" stroke-width="1.5" stroke-linecap="round" stroke-linejoin="round"/>
<path d="M5.97041 7.16C6.03041 7.15 6.10041 7.15 6.16041 7.16C7.54041 7.11 8.64041 5.98 8.64041 4.58C8.64041 3.15 7.49041 2 6.06041 2C4.63041 2 3.48041 3.16 3.48041 4.58C3.49041 5.98 4.59041 7.11 5.97041 7.16Z" stroke="#3055D9" stroke-width="1.5" stroke-linecap="round" stroke-linejoin="round"/>
<path d="M7.00043 14.44C5.63043 14.67 4.12043 14.43 3.06043 13.72C1.65043 12.78 1.65043 11.24 3.06043 10.3C4.13043 9.59001 5.66043 9.35 7.03043 9.59" stroke="#3055D9" stroke-width="1.5" stroke-linecap="round" stroke-linejoin="round"/>
<path d="M12.0001 14.63C11.9401 14.62 11.8701 14.62 11.8101 14.63C10.4301 14.58 9.33008 13.45 9.33008 12.05C9.33008 10.62 10.4801 9.46997 11.9101 9.46997C13.3401 9.46997 14.4901 10.63 14.4901 12.05C14.4801 13.45 13.3801 14.59 12.0001 14.63Z" stroke="#3055D9" stroke-width="1.5" stroke-linecap="round" stroke-linejoin="round"/>
<path d="M9.0907 17.78C7.6807 18.72 7.6807 20.26 9.0907 21.2C10.6907 22.27 13.3107 22.27 14.9107 21.2C16.3207 20.26 16.3207 18.72 14.9107 17.78C13.3207 16.72 10.6907 16.72 9.0907 17.78Z" stroke="#3055D9" stroke-width="1.5" stroke-linecap="round" stroke-linejoin="round"/>
</svg>
