<svg width="25" height="25" viewBox="0 0 25 25" fill="none" xmlns="http://www.w3.org/2000/svg">
<path d="M5.20801 12.5C5.20801 10.5661 5.97623 8.71146 7.34369 7.34401C8.71114 5.97656 10.5658 5.20833 12.4997 5.20833M5.20801 12.5H2.08301M5.20801 12.5C5.20801 14.5135 6.02467 16.3365 7.34343 17.6562L4.68717 20.3125M12.4997 5.20833V2.08333M12.4997 5.20833C14.5132 5.20833 16.3361 6.025 17.6559 7.34375L20.3122 4.6875M12.4997 2.08333H14.583M12.4997 2.08333H10.4163M2.08301 12.5V10.4167M2.08301 12.5V14.5833M20.3122 4.6875L18.7497 3.12499M20.3122 4.6875L21.8747 6.25M4.68717 4.6875L6.24967 3.12499M4.68717 4.6875L3.12467 6.25M4.68717 4.6875L7.29134 7.29166M4.68717 20.3125L6.24967 21.875M4.68717 20.3125L3.12467 18.75M16.6663 19.7917H16.6674M9.37468 10.9375C9.37468 10.5231 9.53929 10.1257 9.83232 9.83264C10.1253 9.53962 10.5228 9.375 10.9372 9.375M16.6674 16.6667L16.6663 13.5417M22.9163 16.6667C22.9163 18.3243 22.2579 19.914 21.0858 21.0861C19.9137 22.2582 18.3239 22.9167 16.6663 22.9167C15.0087 22.9167 13.419 22.2582 12.2469 21.0861C11.0748 19.914 10.4163 18.3243 10.4163 16.6667C10.4163 15.0091 11.0748 13.4193 12.2469 12.2472C13.419 11.0751 15.0087 10.4167 16.6663 10.4167C18.3239 10.4167 19.9137 11.0751 21.0858 12.2472C22.2579 13.4193 22.9163 15.0091 22.9163 16.6667V16.6667Z" stroke="#3055D9" stroke-width="1.5" stroke-linecap="round" stroke-linejoin="round"/>
</svg>
