<svg width="17" height="15" viewBox="0 0 17 15" fill="none" xmlns="http://www.w3.org/2000/svg">
<path d="M14.79 2.24172C14.4265 1.87813 13.9951 1.5897 13.5201 1.39292C13.0452 1.19613 12.5362 1.09485 12.0221 1.09485C11.508 1.09485 10.999 1.19613 10.524 1.39292C10.0491 1.5897 9.61763 1.87813 9.2542 2.24172L8.49997 2.99596L7.74574 2.24172C7.01165 1.50764 6.01601 1.09523 4.97786 1.09523C3.9397 1.09523 2.94406 1.50764 2.20997 2.24172C1.47588 2.97581 1.06348 3.97145 1.06348 5.00961C1.06348 6.04777 1.47588 7.04341 2.20997 7.77749L2.9642 8.53172L8.49997 14.0675L14.0357 8.53172L14.79 7.77749C15.1536 7.41407 15.442 6.98257 15.6388 6.50765C15.8356 6.03273 15.9368 5.52369 15.9368 5.00961C15.9368 4.49553 15.8356 3.98649 15.6388 3.51157C15.442 3.03665 15.1536 2.60515 14.79 2.24172V2.24172Z" stroke="black" stroke-width="1.42308" stroke-linecap="round" stroke-linejoin="round"/>
</svg>
