<svg width="20" height="20" viewBox="0 0 20 20" fill="none" xmlns="http://www.w3.org/2000/svg">
<path d="M1.66699 8.33333L8.95916 2.49959C9.56783 2.01263 10.4328 2.01263 11.0415 2.49959L18.3337 8.33333" stroke="#2453FF" stroke-width="1.5" stroke-linecap="round" stroke-linejoin="round"/>
<path d="M7.8977 3.37454L4.56437 6.08287C3.95916 6.5746 3.65655 6.82047 3.49477 7.16034C3.33301 7.50022 3.33301 7.89012 3.33301 8.66993V11.6667C3.33301 14.8093 3.33301 16.3808 4.30932 17.357C5.28563 18.3333 6.85697 18.3333 9.99967 18.3333C13.1423 18.3333 14.7138 18.3333 15.69 17.357C16.6663 16.3808 16.6663 14.8093 16.6663 11.6667V8.66993C16.6663 7.89012 16.6663 7.50022 16.5046 7.16034C16.3428 6.82047 16.0402 6.5746 15.435 6.08287L12.1017 3.37454C11.0948 2.55649 10.5914 2.14746 9.99967 2.14746C9.40792 2.14746 8.90451 2.55649 7.8977 3.37454Z" stroke="#2453FF" stroke-width="1.5"/>
<path d="M8.125 13.5417H11.875" stroke="#2453FF" stroke-width="1.5" stroke-linecap="round"/>
</svg>
