<svg width="11" height="11" viewBox="0 0 11 11" fill="none" xmlns="http://www.w3.org/2000/svg">
<path d="M3.39334 4.94948V3.39305C3.39334 2.87706 3.59832 2.3822 3.96318 2.01734C4.32804 1.65249 4.82289 1.44751 5.33888 1.44751C5.85487 1.44751 6.34973 1.65249 6.71459 2.01734C7.07944 2.3822 7.28442 2.87706 7.28442 3.39305V4.94948M2.61513 4.94948H8.06264C8.49243 4.94948 8.84085 5.2979 8.84085 5.72769V8.45145C8.84085 8.88124 8.49243 9.22966 8.06264 9.22966H2.61513C2.18533 9.22966 1.83691 8.88124 1.83691 8.45145V5.72769C1.83691 5.2979 2.18533 4.94948 2.61513 4.94948Z" stroke="#020246" stroke-width="0.778215" stroke-linecap="round" stroke-linejoin="round"/>
</svg>
