<svg width="15" height="15" viewBox="0 0 15 15" fill="none" xmlns="http://www.w3.org/2000/svg">
<path d="M7.41394 0.887517L7.49997 0.88237C7.68007 0.882394 7.8539 0.948514 7.98848 1.06819C8.12306 1.18787 8.20905 1.35277 8.23012 1.53163L8.23527 1.61766V6.76472H13.3823C13.5624 6.76475 13.7362 6.83087 13.8708 6.95054C14.0054 7.07022 14.0914 7.23513 14.1125 7.41399L14.1176 7.50002C14.1176 7.68011 14.0515 7.85394 13.9318 7.98853C13.8121 8.12311 13.6472 8.20909 13.4684 8.23016L13.3823 8.23531H8.23527V13.3824C8.23524 13.5625 8.16912 13.7363 8.04945 13.8709C7.92977 14.0055 7.76486 14.0914 7.586 14.1125L7.49997 14.1177C7.31987 14.1176 7.14605 14.0515 7.01146 13.9318C6.87688 13.8122 6.7909 13.6473 6.76982 13.4684L6.76468 13.3824V8.23531H1.61762C1.43752 8.23529 1.26369 8.16917 1.12911 8.04949C0.994525 7.92982 0.908543 7.76491 0.887471 7.58605L0.882324 7.50002C0.882348 7.31992 0.948468 7.14609 1.06814 7.01151C1.18782 6.87692 1.35273 6.79094 1.53159 6.76987L1.61762 6.76472H6.76468V1.61766C6.7647 1.43757 6.83082 1.26374 6.9505 1.12916C7.07017 0.994571 7.23508 0.908588 7.41394 0.887517L7.49997 0.88237L7.41394 0.887517Z" fill="#5243C2"/>
</svg>
