<svg width="17" height="18" viewBox="0 0 17 18" fill="none" xmlns="http://www.w3.org/2000/svg">
<g clip-path="url(#clip0_148_23573)">
<path d="M6.55686 16.0591C6.92534 16.0591 7.22406 15.7437 7.22406 15.3548C7.22406 14.9658 6.92534 14.6505 6.55686 14.6505C6.18837 14.6505 5.88965 14.9658 5.88965 15.3548C5.88965 15.7437 6.18837 16.0591 6.55686 16.0591Z" stroke="white" stroke-width="1.77922" stroke-linecap="round" stroke-linejoin="round"/>
<path d="M13.8962 16.0591C14.2647 16.0591 14.5634 15.7437 14.5634 15.3548C14.5634 14.9658 14.2647 14.6505 13.8962 14.6505C13.5277 14.6505 13.229 14.9658 13.229 15.3548C13.229 15.7437 13.5277 16.0591 13.8962 16.0591Z" stroke="white" stroke-width="1.77922" stroke-linecap="round" stroke-linejoin="round"/>
<path d="M1.21924 1.26929H3.88807L5.67619 10.6995C5.7372 11.0238 5.90431 11.315 6.14827 11.5223C6.39222 11.7296 6.69748 11.8397 7.0106 11.8334H13.4959C13.809 11.8397 14.1142 11.7296 14.3582 11.5223C14.6022 11.315 14.7693 11.0238 14.8303 10.6995L15.8978 4.79066H4.55528" stroke="white" stroke-width="1.77922" stroke-linecap="round" stroke-linejoin="round"/>
</g>
<defs>
<clipPath id="clip0_148_23573">
<rect width="16.013" height="16.9026" fill="white" transform="translate(0.551758 0.564941)"/>
</clipPath>
</defs>
</svg>
