<svg width="20" height="20" viewBox="0 0 20 20" fill="none" xmlns="http://www.w3.org/2000/svg">
<path d="M6.69844 4.8999C6.29844 4.8999 5.89844 4.5999 5.89844 4.0999V1.6999C5.89844 1.2999 6.19844 0.899902 6.69844 0.899902C7.19844 0.899902 7.49844 1.1999 7.49844 1.6999V4.1999C7.39844 4.5999 7.09844 4.8999 6.69844 4.8999Z" fill="#7686AB"/>
<path d="M13.3 4.90002C12.9 4.90002 12.5 4.60002 12.5 4.10002V1.70002C12.5 1.30002 12.8 0.900024 13.3 0.900024C13.8 0.900024 14.1 1.20002 14.1 1.70002V4.20002C14.1 4.60002 13.7 4.90002 13.3 4.90002Z" fill="#7686AB"/>
<path d="M17.0992 8.30005H2.89922C2.49922 8.30005 2.19922 8.00005 2.19922 7.60005C2.19922 7.20005 2.49922 6.80005 2.99922 6.80005H17.1992C17.5992 6.80005 17.9992 7.10005 17.9992 7.60005C17.9992 8.10005 17.4992 8.30005 17.0992 8.30005Z" fill="#7686AB"/>
<path d="M13.3008 19.1H6.70078C3.60078 19.1 1.80078 17.3 1.80078 14.2V7.09995C1.80078 3.99995 3.60078 2.19995 6.70078 2.19995H13.4008C16.5008 2.19995 18.3008 3.99995 18.3008 7.09995V14.2C18.3008 17.3 16.5008 19.1 13.3008 19.1ZM6.70078 3.69995C4.40078 3.69995 3.30078 4.79995 3.30078 7.09995V14.2C3.30078 16.5 4.40078 17.6 6.70078 17.6H13.4008C15.7008 17.6 16.8008 16.5 16.8008 14.2V7.09995C16.8008 4.79995 15.7008 3.69995 13.4008 3.69995H6.70078Z" fill="#7686AB"/>
<path d="M10 12.4C9.4 12.4 9 12 9 11.4C9 10.8 9.4 10.4 10 10.4C10.6 10.4 11 10.8 11 11.4C11 12 10.6 12.4 10 12.4Z" fill="#7686AB"/>
<path d="M6.89844 12.3999C6.29844 12.3999 5.89844 11.9999 5.89844 11.3999C5.89844 10.7999 6.29844 10.3999 6.89844 10.3999C7.49844 10.3999 7.89844 10.7999 7.89844 11.3999C7.89844 11.9999 7.49844 12.3999 6.89844 12.3999Z" fill="#7686AB"/>
<path d="M6.89844 14.8999C6.29844 14.8999 5.89844 14.4999 5.89844 13.8999C5.89844 13.2999 6.29844 12.8999 6.89844 12.8999C7.49844 12.8999 7.89844 13.2999 7.89844 13.8999C7.89844 14.4999 7.49844 14.8999 6.89844 14.8999Z" fill="#7686AB"/>
</svg>
