<svg width="24" height="24" viewBox="0 0 24 24" fill="none" xmlns="http://www.w3.org/2000/svg">
<path d="M11.4992 15.8C11.2992 15.8 11.0992 15.7 10.9992 15.6L7.99922 12.6C7.89922 12.5 7.89922 12.4 7.79922 12.4C7.79922 12.3 7.69922 12.2 7.69922 12.1C7.69922 12 7.69922 11.9 7.79922 11.8C7.79922 11.7 7.89922 11.6 7.99922 11.6L10.9992 8.6C11.2992 8.3 11.7992 8.3 12.0992 8.6C12.1992 8.7 12.2992 8.9 12.2992 9.1C12.2992 9.3 12.1992 9.4 11.9992 9.5L10.2992 11.2H19.4992C19.8992 11.2 20.2992 11.5 20.2992 12C20.2992 12.5 19.9992 12.8 19.4992 12.8H10.2992L11.9992 14.5C12.2992 14.8 12.2992 15.3 11.9992 15.6C11.8992 15.7 11.6992 15.8 11.4992 15.8Z" fill="#8696BB"/>
<path d="M5 16V8C5 7 5 6.7 5 6.5C5.3 5 6.5 3.8 8 3.5C8.2 3.5 8.6 3.5 9.5 3.5C10.4 3.5 10.8 3.5 11 3.5C12.5 3.8 13.7 5 14 6.5C14 6.7 14 7 14 8V8.3C14 8.7 14.3 9 14.8 9C15.3 9 15.6 8.7 15.6 8.2V8C15.6 7.1 15.6 6.6 15.5 6.2C15.2 4.1 13.5 2.4 11.3 2C10.9 2 10.4 2 9.5 2C8.6 2 8.1 2 7.7 2.1C5.6 2.4 3.9 4.1 3.5 6.3C3.5 6.6 3.5 7.1 3.5 8V16C3.5 16.9 3.5 17.4 3.6 17.8C3.9 19.9 5.6 21.6 7.8 22C8.1 22 8.6 22 9.5 22C10.4 22 10.9 22 11.3 21.9C13.4 21.6 15.1 19.9 15.5 17.7C15.6 17.3 15.6 16.8 15.6 15.9V15.6C15.6 15.2 15.3 14.8 14.8 14.8C14.3 14.8 14 15.3 14 15.8V16C14 17 14 17.3 14 17.5C13.8 19 12.6 20.2 11.1 20.4C10.9 20.4 10.5 20.4 9.6 20.4C8.7 20.4 8.3 20.4 8.1 20.4C6.5 20.2 5.3 19 5 17.5C5 17.3 5 17 5 16Z" fill="#8696BB"/>
</svg>
