<svg width="22" height="23" viewBox="0 0 22 23" fill="none" xmlns="http://www.w3.org/2000/svg">
<path d="M9.17583 19.53C9.17583 20.5384 9.99167 21.3542 11 21.3542C12.0083 21.3542 12.8242 20.5384 12.8242 19.53H9.17583ZM11 5.77087C13.53 5.77087 15.5833 7.82421 15.5833 10.3542V16.7709H6.41667V10.3542C6.41667 7.82421 8.47 5.77087 11 5.77087ZM11 1.64587C10.2392 1.64587 9.625 2.26004 9.625 3.02087V4.09337C6.74667 4.71671 4.58333 7.28337 4.58333 10.3542V15.8542L2.75 17.6875V18.6042H19.25V17.6875L17.4167 15.8542V10.3542C17.4167 7.28337 15.2533 4.71671 12.375 4.09337V3.02087C12.375 2.26004 11.7608 1.64587 11 1.64587Z" fill="#8696BB"/>
<circle cx="16.043" cy="8.29163" r="3.625" fill="#FF9900" stroke="white"/>
</svg>
