<svg width="20" height="20" viewBox="0 0 20 20" fill="none" xmlns="http://www.w3.org/2000/svg">
<path d="M10.1 9.80002C10 9.80002 9.9 9.80002 9.9 9.80002C7.4 9.70002 5.5 7.80002 5.5 5.40002C5.5 2.90002 7.5 0.900024 10 0.900024C12.5 0.900024 14.5 2.90002 14.5 5.40002C14.4 7.80002 12.6 9.70002 10.1 9.80002ZM10 2.40002C8.4 2.40002 7 3.70002 7 5.40002C7 7.00002 8.3 8.30002 9.9 8.30002C9.9 8.30002 10.1 8.30002 10.2 8.30002C11.8 8.20002 13 6.90002 13 5.40002C13 3.70002 11.6 2.40002 10 2.40002Z" fill="#7686AB"/>
<path d="M10.0992 18.9C8.39922 18.9 6.79922 18.5 5.49922 17.6C4.29922 16.8 3.69922 15.7 3.69922 14.5C3.69922 13.3 4.39922 12.2 5.49922 11.4C7.99922 9.7 12.1992 9.7 14.6992 11.4C15.8992 12.2 16.4992 13.3 16.4992 14.5C16.4992 15.7 15.7992 16.8 14.6992 17.6C13.4992 18.5 11.7992 18.9 10.0992 18.9ZM6.39922 12.8C5.59922 13.3 5.19922 14 5.19922 14.6C5.19922 15.3 5.59922 15.9 6.39922 16.4C8.39922 17.8 11.8992 17.8 13.8992 16.4C14.6992 15.9 15.0992 15.2 15.0992 14.6C15.0992 13.9 14.6992 13.3 13.8992 12.8C11.8992 11.4 8.39922 11.4 6.39922 12.8Z" fill="#7686AB"/>
</svg>
