<svg width="20" height="20" viewBox="0 0 20 20" fill="none" xmlns="http://www.w3.org/2000/svg">
<path d="M7.50078 19.2C6.60078 19.2 5.80078 18.4 5.80078 17.5C5.80078 16.6 6.60078 15.8 7.50078 15.8C8.40078 15.8 9.20078 16.6 9.20078 17.5C9.20078 18.4 8.40078 19.2 7.50078 19.2ZM7.50078 17.5V18.3V17.5Z" fill="#7686AB"/>
<path d="M16.7 19.2C15.8 19.2 15 18.4 15 17.5C15 16.6 15.8 15.8 16.7 15.8C17.6 15.8 18.4 16.6 18.4 17.5C18.4 18.4 17.6 19.2 16.7 19.2ZM16.7 17.5V18.3V17.5Z" fill="#7686AB"/>
<path d="M8 14.2C7.4 14.2 6.9 14 6.4 13.6C5.9 13.2 5.6 12.7 5.5 12.1L4.2 5.2V5.1L3.5 1.7H0.8C0.4 1.7 0 1.3 0 0.8C0 0.3 0.4 0 0.8 0H4.1C4.6 0 4.9 0.3 5 0.7L5.7 4.2H19.2C19.5 4.2 19.7 4.3 19.9 4.5C20 4.7 20 4.9 20 5.2L18.7 12.2C18.6 12.8 18.3 13.3 17.8 13.7C17.3 14.1 16.8 14.3 16.2 14.3L8 14.2C8.1 14.2 8 14.2 8 14.2ZM6 5.9L7.2 11.9C7.2 12.1 7.3 12.3 7.5 12.4C7.6 12.5 7.8 12.6 8 12.6H16.1C16.3 12.6 16.5 12.5 16.6 12.4C16.7 12.3 16.9 12.1 16.9 11.9L18 5.9H6Z" fill="#7686AB"/>
<path d="M8 14.2C7.4 14.2 6.9 14 6.4 13.6C5.9 13.2 5.6 12.7 5.5 12.1L4.2 5.2V5.1L3.5 1.7H0.8C0.4 1.7 0 1.3 0 0.8C0 0.3 0.4 0 0.8 0H4.1C4.6 0 4.9 0.3 5 0.7L5.7 4.2H19.2C19.5 4.2 19.7 4.3 19.9 4.5C20 4.7 20 4.9 20 5.2L18.7 12.2C18.6 12.8 18.3 13.3 17.8 13.7C17.3 14.1 16.8 14.3 16.2 14.3L8 14.2C8.1 14.2 8 14.2 8 14.2ZM6 5.9L7.2 11.9C7.2 12.1 7.3 12.3 7.5 12.4C7.6 12.5 7.8 12.6 8 12.6H16.1C16.3 12.6 16.5 12.5 16.6 12.4C16.7 12.3 16.9 12.1 16.9 11.9L18 5.9H6Z" fill="#7686AB"/>
</svg>
