<svg width="16" height="16" viewBox="0 0 16 16" fill="none" xmlns="http://www.w3.org/2000/svg">
<path d="M15.9997 2.91549C15.9966 2.51651 15.9125 2.12235 15.7525 1.75711C15.5925 1.39186 15.3599 1.0632 15.069 0.791227C13.916 -0.299836 12.0464 -0.258508 10.9016 0.890415L9.09787 2.70059C8.72059 2.35762 8.22642 2.17323 7.71752 2.18554C7.20862 2.19784 6.72388 2.4059 6.36349 2.76671L5.78696 3.34531C5.54251 3.59429 5.40548 3.92979 5.40548 4.27932C5.40548 4.62886 5.54251 4.96436 5.78696 5.21334L5.95992 5.38692L1.80893 9.54453C1.43055 9.92735 1.15043 10.3966 0.992628 10.912C0.834823 11.4275 0.804053 11.9736 0.902962 12.5036L0.0958253 14.3551C0.00367867 14.5641 -0.0228248 14.7963 0.0198468 15.0207C0.0625185 15.2452 0.172339 15.4513 0.334672 15.6115C0.456263 15.7351 0.601204 15.8331 0.761009 15.8999C0.920814 15.9666 1.09227 16.0006 1.26535 16C1.44648 16.0002 1.62578 15.9637 1.79246 15.8925L3.52204 15.1321C4.05014 15.2314 4.59435 15.2005 5.10793 15.0421C5.62152 14.8837 6.08911 14.6026 6.47056 14.2229L10.6133 10.057L10.7863 10.2306C10.908 10.354 11.053 10.452 11.2127 10.5189C11.3725 10.5858 11.5439 10.6202 11.7169 10.6202C11.89 10.6202 12.0614 10.5858 12.2212 10.5189C12.3809 10.452 12.5259 10.354 12.6476 10.2306L13.2242 9.65199C13.5837 9.29031 13.791 8.80383 13.8033 8.2931C13.8155 7.78237 13.6318 7.28643 13.29 6.9078L15.1349 5.06456C15.4142 4.78206 15.6346 4.44648 15.7831 4.07747C15.9316 3.70846 16.0052 3.31342 15.9997 2.91549ZM5.53988 13.2889C5.2929 13.5331 4.98694 13.7087 4.65198 13.7985C4.31702 13.8884 3.96455 13.8893 3.62911 13.8013C3.4841 13.7621 3.33009 13.7738 3.19259 13.8344L1.42184 14.6114L2.19603 12.8343C2.25644 12.6963 2.26806 12.5417 2.22897 12.3962C2.12541 12.0091 2.14266 11.5994 2.27839 11.2225H7.59067L5.53988 13.2889ZM8.90844 9.89995H3.32437L6.8906 6.32094L9.68263 9.12299L8.90844 9.89995ZM14.196 4.12228L11.8899 6.43665C11.7662 6.56202 11.6968 6.73134 11.6968 6.9078C11.6968 7.08425 11.7662 7.25357 11.8899 7.37894L12.2935 7.77569C12.4172 7.90106 12.4866 8.07037 12.4866 8.24683C12.4866 8.42328 12.4172 8.5926 12.2935 8.71797L11.7169 9.29656L6.71764 4.27932L7.29417 3.70073C7.35548 3.63825 7.42855 3.58864 7.50915 3.55477C7.58975 3.5209 7.67625 3.50346 7.76362 3.50346C7.851 3.50346 7.9375 3.5209 8.0181 3.55477C8.09869 3.58864 8.17177 3.63825 8.23308 3.70073L8.62841 4.10575C8.75333 4.22992 8.92205 4.29958 9.09787 4.29958C9.27369 4.29958 9.44241 4.22992 9.56733 4.10575L11.8323 1.82443C12.4829 1.17971 13.5289 1.14665 14.1631 1.75831C14.3243 1.90844 14.4535 2.0899 14.5426 2.29167C14.6318 2.49344 14.6792 2.71131 14.6819 2.93203C14.6872 3.15334 14.6467 3.37335 14.5631 3.57819C14.4795 3.78304 14.3545 3.96829 14.196 4.12228Z" fill="#2453FF"/>
</svg>
