<svg width="20" height="20" viewBox="0 0 20 20" fill="none" xmlns="http://www.w3.org/2000/svg">
<path d="M7.51663 2.36664L3.02496 5.86664C2.27496 6.44997 1.66663 7.69164 1.66663 8.63331V14.8083C1.66663 16.7416 3.24163 18.325 5.17496 18.325H14.825C16.7583 18.325 18.3333 16.7416 18.3333 14.8166V8.74997C18.3333 7.74164 17.6583 6.44997 16.8333 5.87497L11.6833 2.26664C10.5166 1.44997 8.64163 1.49164 7.51663 2.36664Z" stroke="#2453FF" stroke-width="1.5" stroke-linecap="round" stroke-linejoin="round"/>
<path d="M10.0005 9.69167C9.95051 9.68333 9.89218 9.68333 9.84218 9.69167C8.69218 9.65 7.77551 8.70833 7.77551 7.54166C7.77551 6.35 8.73384 5.39166 9.92551 5.39166C11.1172 5.39166 12.0755 6.35833 12.0755 7.54166C12.0672 8.70833 11.1505 9.65833 10.0005 9.69167Z" stroke="#2453FF" stroke-width="1.5" stroke-linecap="round" stroke-linejoin="round"/>
<path d="M7.57559 12.3167C6.40059 13.1 6.40059 14.3833 7.57559 15.1667C8.90892 16.0583 11.0923 16.0583 12.4256 15.1667C13.6006 14.3833 13.6006 13.1 12.4256 12.3167C11.1006 11.4333 8.90892 11.4333 7.57559 12.3167Z" stroke="#2453FF" stroke-width="1.5" stroke-linecap="round" stroke-linejoin="round"/>
</svg>
