<svg width="21" height="23" viewBox="0 0 21 23" fill="none" xmlns="http://www.w3.org/2000/svg">
<rect width="20" height="20" fill="white"/>
<path fill-rule="evenodd" clip-rule="evenodd" d="M20.1 12.7272C20.1 12.0181 20.0364 11.3363 19.9182 10.6818H10.5V14.5499H15.8818C15.65 15.7999 14.9455 16.859 13.8864 17.5681V20.0772H17.1182C19.0091 18.3363 20.1 15.7727 20.1 12.7272Z" fill="#4285F4"/>
<path fill-rule="evenodd" clip-rule="evenodd" d="M10.4998 22.4998C13.1998 22.4998 15.4635 21.6043 17.118 20.0771L13.8862 17.568C12.9907 18.168 11.8453 18.5225 10.4998 18.5225C7.89529 18.5225 5.69075 16.7634 4.90439 14.3998H1.56348V16.9907C3.20893 20.2589 6.59075 22.4998 10.4998 22.4998Z" fill="#34A853"/>
<path fill-rule="evenodd" clip-rule="evenodd" d="M4.90455 14.4001C4.70455 13.8001 4.59091 13.1592 4.59091 12.5001C4.59091 11.841 4.70455 11.2001 4.90455 10.6001V8.00916H1.56364C0.886364 9.35916 0.5 10.8864 0.5 12.5001C0.5 14.1137 0.886364 15.641 1.56364 16.991L4.90455 14.4001Z" fill="#FBBC05"/>
<path fill-rule="evenodd" clip-rule="evenodd" d="M10.4998 6.47727C11.968 6.47727 13.2862 6.98182 14.3226 7.97273L17.1908 5.10455C15.4589 3.49091 13.1953 2.5 10.4998 2.5C6.59075 2.5 3.20893 4.74091 1.56348 8.00909L4.90439 10.6C5.69075 8.23636 7.8953 6.47727 10.4998 6.47727Z" fill="#EA4335"/>
</svg>
