<svg width="20" height="20" viewBox="0 0 20 20" fill="none" xmlns="http://www.w3.org/2000/svg">
<g clip-path="url(#clip0_1613_10189)">
<path d="M15.0779 18.8889H4.92237C4.70859 18.8838 4.4979 18.8367 4.30233 18.7502C4.10677 18.6637 3.93016 18.5395 3.78261 18.3848C3.63506 18.23 3.51945 18.0477 3.44238 17.8482C3.36532 17.6487 3.32831 17.436 3.33348 17.2222V6.23889H4.44459V17.2222C4.43929 17.2901 4.44746 17.3584 4.46863 17.4231C4.4898 17.4878 4.52356 17.5477 4.56796 17.5994C4.61236 17.651 4.66653 17.6933 4.72736 17.7239C4.78818 17.7546 4.85445 17.7729 4.92237 17.7778H15.0779C15.1458 17.7729 15.2121 17.7546 15.2729 17.7239C15.3338 17.6933 15.3879 17.651 15.4323 17.5994C15.4767 17.5477 15.5105 17.4878 15.5317 17.4231C15.5528 17.3584 15.561 17.2901 15.5557 17.2222V6.23889H16.6668V17.2222C16.672 17.436 16.635 17.6487 16.5579 17.8482C16.4809 18.0477 16.3652 18.23 16.2177 18.3848C16.0701 18.5395 15.8935 18.6637 15.698 18.7502C15.5024 18.8367 15.2917 18.8838 15.0779 18.8889Z" fill="#8696BB"/>
<path d="M17.1004 5H2.77821C2.63087 5 2.48956 4.94146 2.38537 4.83728C2.28119 4.73309 2.22266 4.59178 2.22266 4.44444C2.22266 4.2971 2.28119 4.15579 2.38537 4.0516C2.48956 3.94742 2.63087 3.88889 2.77821 3.88889H17.1004C17.2478 3.88889 17.3891 3.94742 17.4933 4.0516C17.5975 4.15579 17.656 4.2971 17.656 4.44444C17.656 4.59178 17.5975 4.73309 17.4933 4.83728C17.3891 4.94146 17.2478 5 17.1004 5Z" fill="#8696BB"/>
<path d="M11.667 7.22223H12.7781V15.5556H11.667V7.22223Z" fill="#8696BB"/>
<path d="M7.22266 7.22223H8.33377V15.5556H7.22266V7.22223Z" fill="#8696BB"/>
<path d="M12.7782 3.25556H11.7227V2.22223H8.27821V3.25556H7.22266V2.22223C7.2223 1.93692 7.33171 1.66241 7.52821 1.45556C7.72472 1.24871 7.99326 1.12538 8.27821 1.11111H11.7227C12.0076 1.12538 12.2762 1.24871 12.4727 1.45556C12.6692 1.66241 12.7786 1.93692 12.7782 2.22223V3.25556Z" fill="#8696BB"/>
</g>
<defs>
<clipPath id="clip0_1613_10189">
<rect width="20" height="20" fill="white"/>
</clipPath>
</defs>
</svg>
