<svg width="20" height="20" viewBox="0 0 20 20" fill="none" xmlns="http://www.w3.org/2000/svg">
<path d="M14.0417 3.12501C14.2277 2.93897 14.4486 2.7914 14.6916 2.69071C14.9347 2.59003 15.1952 2.53821 15.4583 2.53821C15.7214 2.53821 15.982 2.59003 16.225 2.69071C16.4681 2.7914 16.689 2.93897 16.875 3.12501C17.061 3.31105 17.2086 3.53191 17.3093 3.77498C17.41 4.01805 17.4618 4.27858 17.4618 4.54168C17.4618 4.80478 17.41 5.0653 17.3093 5.30837C17.2086 5.55144 17.061 5.7723 16.875 5.95834L7.3125 15.5208L3.41666 16.5833L4.47916 12.6875L14.0417 3.12501Z" stroke="#2453FF" stroke-width="2" stroke-linecap="round" stroke-linejoin="round"/>
</svg>
