<svg width="21" height="20" viewBox="0 0 21 20" fill="none" xmlns="http://www.w3.org/2000/svg">
<path d="M9.19336 2.39526C13.3408 2.39526 16.7069 5.62172 16.7069 9.59717C16.7069 13.5726 13.3408 16.7991 9.19336 16.7991C5.0459 16.7991 1.67984 13.5726 1.67984 9.59717C1.67984 5.62172 5.0459 2.39526 9.19336 2.39526ZM9.19336 15.1987C12.4217 15.1987 15.0372 12.6916 15.0372 9.59717C15.0372 6.50195 12.4217 3.99569 9.19336 3.99569C5.96421 3.99569 3.34951 6.50195 3.34951 9.59717C3.34951 12.6916 5.96421 15.1987 9.19336 15.1987ZM16.2769 15.2555L18.6387 17.5185L17.4574 18.6508L15.0965 16.387L16.2769 15.2555V15.2555Z" fill="white"/>
</svg>
